<svg width="1024" height="1024" xmlns="http://www.w3.org/2000/svg">
  <defs>
    <radialGradient id="iconGradient" cx="50%" cy="30%" r="70%">
      <stop offset="0%" style="stop-color:#4a9eff;stop-opacity:1" />
      <stop offset="70%" style="stop-color:#16213e;stop-opacity:1" />
      <stop offset="100%" style="stop-color:#0c0c0c;stop-opacity:1" />
    </radialGradient>
    <filter id="glow">
      <feGaussianBlur stdDeviation="8" result="coloredBlur"/>
      <feMerge>
        <feMergeNode in="coloredBlur"/>
        <feMergeNode in="SourceGraphic"/>
      </feMerge>
    </filter>
  </defs>

  <!-- Background circle -->
  <circle cx="512" cy="512" r="480" fill="url(#iconGradient)"/>

  <!-- Rocket ship -->
  <g transform="translate(512, 512)">
    <!-- Rocket body -->
    <rect x="-20" y="-60" width="40" height="80" rx="20" fill="#ffd700" filter="url(#glow)"/>
    <!-- Rocket nose -->
    <polygon points="-25,-100 0,-140 25,-100" fill="#ff6b35"/>
    <!-- Rocket fins -->
    <polygon points="-40,-20 -60,20 -20,20" fill="#4a9eff"/>
    <polygon points="40,-20 60,20 20,20" fill="#4a9eff"/>
    <!-- Rocket window -->
    <circle cx="0" cy="-20" r="15" fill="#6bb6ff" opacity="0.8"/>
    <!-- Engine glow -->
    <rect x="-15" y="20" width="30" height="20" rx="15" fill="#ff4757" opacity="0.6"/>
  </g>

  <!-- Stars around the rocket -->
  <circle cx="200" cy="300" r="4" fill="#ffd700" opacity="0.9"/>
  <circle cx="300" cy="200" r="3" fill="#ffffff" opacity="0.8"/>
  <circle cx="700" cy="250" r="5" fill="#4a9eff" opacity="0.7"/>
  <circle cx="800" cy="400" r="3" fill="#ffd700" opacity="0.9"/>
  <circle cx="150" cy="600" r="4" fill="#6bb6ff" opacity="0.8"/>
  <circle cx="850" cy="700" r="3" fill="#ffffff" opacity="0.8"/>
  <circle cx="400" cy="150" r="4" fill="#ffd700" opacity="0.9"/>
  <circle cx="600" cy="800" r="3" fill="#4a9eff" opacity="0.7"/>

  <!-- Orbital rings -->
  <circle cx="512" cy="512" r="200" fill="none" stroke="#4a9eff" stroke-width="3" opacity="0.4"/>
  <circle cx="512" cy="512" r="300" fill="none" stroke="#ffd700" stroke-width="2" opacity="0.3"/>
</svg>
